<svg id="Layer_1" data-name="Layer 1" xmlns="http://www.w3.org/2000/svg" viewBox="0 0 650.06 650.06"><defs><style>.cls-1{fill:#fff;stroke:#1d1d1b;stroke-miterlimit:10;opacity:0.5;}.cls-2{font-size:21px;fill:#1d1d1b;font-family:Garamond-Bold, Garamond;font-weight:700;}.cls-3{letter-spacing:0.03em;}.cls-4{letter-spacing:-0.02em;}.cls-5{font-family:Garamond;font-weight:400;}.cls-6{letter-spacing:0.02em;}.cls-7{letter-spacing:0.03em;}.cls-8{letter-spacing:0.04em;}.cls-9{letter-spacing:0.02em;}.cls-10{letter-spacing:-0.02em;}.cls-11{letter-spacing:-0.01em;}.cls-12{letter-spacing:-0.02em;}.cls-13{letter-spacing:-0.01em;}.cls-14{letter-spacing:-0.05em;}.cls-15{letter-spacing:0.02em;}.cls-16{letter-spacing:-0.04em;}.cls-17{letter-spacing:0.02em;}.cls-18{letter-spacing:-0.02em;}.cls-19{letter-spacing:-0.02em;}.cls-20{letter-spacing:0.02em;}.cls-21{letter-spacing:-0.02em;}.cls-22{letter-spacing:0.01em;}.cls-23{letter-spacing:0.02em;}.cls-24{letter-spacing:0.03em;}.cls-25{letter-spacing:0.03em;}.cls-26{letter-spacing:0.02em;}.cls-27{letter-spacing:0.02em;}.cls-28{letter-spacing:-0.04em;}.cls-29{letter-spacing:0.13em;}.cls-30{letter-spacing:0.02em;}</style></defs><circle class="cls-1" cx="325.03" cy="325.03" r="324.53"/><text class="cls-2"><tspan x="236.61" y="138.11">G</tspan><tspan class="cls-3" x="251.92" y="138.11">r</tspan><tspan x="259.84" y="138.11">undlæ</tspan><tspan class="cls-4" x="314.75" y="138.11">g</tspan><tspan x="325.76" y="138.11">gende UX</tspan><tspan class="cls-5"><tspan x="63.27" y="163.31">I </tspan><tspan class="cls-6" x="75.96" y="163.31">g</tspan><tspan class="cls-7" x="85.88" y="163.31">r</tspan><tspan x="93.56" y="163.31">undlæ</tspan><tspan class="cls-8" x="142.12" y="163.31">g</tspan><tspan class="cls-9" x="152.35" y="163.31">g</tspan><tspan x="162.07" y="163.31">ende UX </tspan><tspan class="cls-10" x="240.81" y="163.31">v</tspan><tspan x="250.25" y="163.31">ar h</tspan><tspan class="cls-11" x="281.75" y="163.31">o</tspan><tspan class="cls-12" x="292.19" y="163.31">v</tspan><tspan x="301.63" y="163.31">edmålet at designe en </tspan><tspan class="cls-13" x="480.97" y="163.31">w</tspan><tspan x="494.69" y="163.31">ebsho</tspan><tspan class="cls-14" x="543.24" y="163.31">p</tspan><tspan x="552.91" y="163.31">, der </tspan><tspan x="58.51" y="188.51">sæl</tspan><tspan class="cls-9" x="83.23" y="188.51">g</tspan><tspan x="92.95" y="188.51">er t-shi</tspan><tspan class="cls-15" x="149.82" y="188.51">r</tspan><tspan x="157.24" y="188.51">ts og to andre produkte</tspan><tspan class="cls-16" x="348.4" y="188.51">r</tspan><tspan x="354.6" y="188.51">. Vi skulle her selv væl</tspan><tspan class="cls-17" x="535.06" y="188.51">g</tspan><tspan x="544.78" y="188.51">e pro</tspan><tspan x="587.21" y="188.51">-</tspan><tspan x="174.36" y="213.71">duktkate</tspan><tspan class="cls-6" x="244.35" y="213.71">g</tspan><tspan x="254.28" y="213.71">orie</tspan><tspan class="cls-18" x="285.55" y="213.71">r</tspan><tspan x="292.03" y="213.71">, mål</tspan><tspan class="cls-6" x="331.41" y="213.71">g</tspan><tspan class="cls-7" x="341.34" y="213.71">r</tspan><tspan x="349.02" y="213.71">upp</tspan><tspan class="cls-11" x="380.73" y="213.71">e</tspan><tspan x="389.2" y="213.71">, priser et</tspan><tspan class="cls-19" x="465.1" y="213.71">c</tspan><tspan x="473.32" y="213.71">. </tspan></tspan><tspan x="71.9" y="264.11">I dette tema har jeg fået en </tspan><tspan class="cls-20" x="315.36" y="264.11">g</tspan><tspan class="cls-3" x="327.07" y="264.11">r</tspan><tspan x="334.99" y="264.11">undlæ</tspan><tspan class="cls-21" x="389.9" y="264.11">g</tspan><tspan x="400.91" y="264.11">gende </tspan><tspan class="cls-22" x="460.42" y="264.11">f</tspan><tspan x="466.97" y="264.11">o</tspan><tspan class="cls-23" x="477.91" y="264.11">r</tspan><tspan x="485.49" y="264.11">ståelse </tspan><tspan class="cls-22" x="550" y="264.11">f</tspan><tspan x="556.56" y="264.11">o</tspan><tspan class="cls-22" x="567.5" y="264.11">r</tspan><tspan x="574.92" y="264.11">: </tspan><tspan class="cls-5"><tspan x="60.43" y="314.51">Samspillet mellem b</tspan><tspan class="cls-24" x="223.58" y="314.51">r</tspan><tspan x="231.26" y="314.51">u</tspan><tspan class="cls-17" x="241.55" y="314.51">g</tspan><tspan x="251.27" y="314.51">ere og b</tspan><tspan class="cls-25" x="317.1" y="314.51">r</tspan><tspan x="324.78" y="314.51">u</tspan><tspan class="cls-17" x="335.06" y="314.51">g</tspan><tspan x="344.78" y="314.51">er</tspan><tspan class="cls-26" x="360.53" y="314.51">g</tspan><tspan x="370.46" y="314.51">rænse</tspan><tspan class="cls-27" x="416.84" y="314.51">f</tspan><tspan x="424.02" y="314.51">lade</tspan><tspan class="cls-18" x="456.6" y="314.51">r</tspan><tspan x="463.08" y="314.51">, samt hvil</tspan><tspan class="cls-11" x="546.85" y="314.51">k</tspan><tspan x="556.42" y="314.51">e te</tspan><tspan x="585.29" y="314.51">-</tspan><tspan x="54.68" y="339.71">orie</tspan><tspan class="cls-18" x="85.95" y="339.71">r</tspan><tspan x="92.43" y="339.71">, værktøjer og metoder man kan benytte til resear</tspan><tspan class="cls-11" x="491.37" y="339.71">c</tspan><tspan x="499.84" y="339.71">h, design og </tspan><tspan x="85.69" y="364.91">test i en digital produktudviklin</tspan><tspan class="cls-28" x="339.38" y="364.91">g</tspan><tspan x="347.86" y="364.91">. De</tspan><tspan class="cls-24" x="382.64" y="364.91">r</tspan><tspan x="390.33" y="364.91">ud</tspan><tspan class="cls-13" x="411.11" y="364.91">o</tspan><tspan class="cls-12" x="421.55" y="364.91">v</tspan><tspan x="430.99" y="364.91">er har jeg fået en </tspan><tspan x="59.04" y="390.11">forståelse for sammenspillet for vigtigheden a</tspan><tspan class="cls-29" x="429.1" y="390.11">f</tspan><tspan x="438.62" y="390.11" xml:space="preserve"> desig</tspan><tspan class="cls-13" x="484.99" y="390.11">n</tspan><tspan class="cls-12" x="495.43" y="390.11">v</tspan><tspan x="504.87" y="390.11">alg og pro</tspan><tspan x="586.67" y="390.11">-</tspan><tspan x="56.98" y="415.31">duktudvikling baseret på </tspan><tspan class="cls-13" x="261.26" y="415.31">k</tspan><tspan x="270.83" y="415.31">onkrete indsigter om reelle b</tspan><tspan class="cls-25" x="503.96" y="415.31">r</tspan><tspan x="511.65" y="415.31">u</tspan><tspan class="cls-17" x="521.93" y="415.31">g</tspan><tspan x="531.65" y="415.31">ere iste</tspan><tspan x="588.73" y="415.31">-</tspan><tspan x="160.28" y="440.51">det for m</tspan><tspan class="cls-13" x="236.84" y="440.51">a</tspan><tspan class="cls-12" x="245.09" y="440.51">v</tspan><tspan x="254.53" y="440.51">efo</tspan><tspan class="cls-30" x="280.77" y="440.51">r</tspan><tspan x="288.2" y="440.51">nemmelser og anta</tspan><tspan class="cls-17" x="441.52" y="440.51">g</tspan><tspan x="451.24" y="440.51">else</tspan><tspan class="cls-16" x="481.2" y="440.51">r</tspan><tspan x="487.41" y="440.51">. </tspan></tspan><tspan x="65.61" y="490.91">Udviklingsp</tspan><tspan class="cls-22" x="174.55" y="490.91">r</tspan><tspan x="181.97" y="490.91">ocessen kan ses i nedstående dokumentation, </tspan><tspan x="200.37" y="516.11">samt link til færdige p</tspan><tspan class="cls-22" x="395.05" y="516.11">r</tspan><tspan x="402.48" y="516.11">ojekt.</tspan></text></svg>