<?xml version="1.0" encoding="utf-8"?>
<!-- Generator: Adobe Illustrator 26.0.0, SVG Export Plug-In . SVG Version: 6.00 Build 0)  -->
<svg version="1.1" id="Layer_1" xmlns="http://www.w3.org/2000/svg" xmlns:xlink="http://www.w3.org/1999/xlink" x="0px" y="0px"
	 viewBox="0 0 650.1 650.1" style="enable-background:new 0 0 650.1 650.1;" xml:space="preserve">
<style type="text/css">
	.st0{opacity:0.5;fill:#FFFFFF;stroke:#1D1D1B;stroke-miterlimit:10;enable-background:new    ;}
	.st1{fill:#1D1D1B;}
	.st2{font-family:'Garamond';}
	.st3{font-size:21px;}
</style>
<circle class="st0" cx="325" cy="325" r="324.5"/>
<text transform="matrix(1 0 0 1 90.685 259.9375)" class="st1 st2 st3">I </text>
<text transform="matrix(1 0 0 1 103.375 259.9375)" class="st1 st2 st3">g</text>
<text transform="matrix(1 0 0 1 113.295 259.9375)" class="st1 st2 st3">r</text>
<text transform="matrix(1 0 0 1 120.975 259.9375)" class="st1 st2 st3">undlæ</text>
<text transform="matrix(1 0 0 1 169.545 259.9375)" class="st1 st2 st3">g</text>
<text transform="matrix(1 0 0 1 179.765 259.9375)" class="st1 st2 st3">g</text>
<text transform="matrix(1 0 0 1 189.485 259.9375)" class="st1 st2 st3">ende HTML </text>
<text transform="matrix(1 0 0 1 297.095 259.9375)" class="st1 st2 st3">v</text>
<text transform="matrix(1 0 0 1 306.545 259.9375)" class="st1 st2 st3">ar </text>
<text transform="matrix(1 0 0 1 327.325 259.9375)" class="st1 st2 st3">v</text>
<text transform="matrix(1 0 0 1 336.7751 259.9375)" class="st1 st2 st3">ores mål at l</text>
<text transform="matrix(1 0 0 1 435.635 259.9375)" class="st1 st2 st3">a</text>
<text transform="matrix(1 0 0 1 443.8951 259.9375)" class="st1 st2 st3">v</text>
<text transform="matrix(1 0 0 1 453.3351 259.9375)" class="st1 st2 st3">e et respons</text>
<text transform="matrix(1 0 0 1 550.665 259.9375)" class="st1 st2 st3">i</text>
<text transform="matrix(1 0 0 1 555.1951 259.9375)" class="st1 st2 st3">vt </text>
<text transform="matrix(1 0 0 1 100.615 285.1375)" class="st1 st2 st3">sit</text>
<text transform="matrix(1 0 0 1 119.195 285.1375)" class="st1 st2 st3">e</text>
<text transform="matrix(1 0 0 1 127.665 285.1375)" class="st1 st2 st3">, som </text>
<text transform="matrix(1 0 0 1 177.325 285.1375)" class="st1 st2 st3">g</text>
<text transform="matrix(1 0 0 1 187.155 285.1375)" class="st1 st2 st3">a</text>
<text transform="matrix(1 0 0 1 195.405 285.1375)" class="st1 st2 st3">v en </text>
<text transform="matrix(1 0 0 1 235.215 285.1375)" class="st1 st2 st3">g</text>
<text transform="matrix(1 0 0 1 245.135 285.1375)" class="st1 st2 st3">r</text>
<text transform="matrix(1 0 0 1 252.815 285.1375)" class="st1 st2 st3">undlæ</text>
<text transform="matrix(1 0 0 1 301.375 285.1375)" class="st1 st2 st3">g</text>
<text transform="matrix(1 0 0 1 311.605 285.1375)" class="st1 st2 st3">g</text>
<text transform="matrix(1 0 0 1 321.325 285.1375)" class="st1 st2 st3">ende indføring til de mest an</text>
<text transform="matrix(1 0 0 1 554.675 285.1375)" class="st1 st2 st3">-</text>
<text transform="matrix(1 0 0 1 98.625 310.3375)" class="st1 st2 st3">v</text>
<text transform="matrix(1 0 0 1 108.065 310.3375)" class="st1 st2 st3">endte redskaber i en </text>
<text transform="matrix(1 0 0 1 276.915 310.3375)" class="st1 st2 st3">m</text>
<text transform="matrix(1 0 0 1 292.8351 310.3375)" class="st1 st2 st3">ultimediedesigners værktøjskass</text>
<text transform="matrix(1 0 0 1 550.285 310.3375)" class="st1 st2 st3">e</text>
<text transform="matrix(1 0 0 1 558.635 310.3375)" class="st1 st2 st3">. </text>
<text transform="matrix(1 0 0 1 93.725 335.5375)" class="st1 st2 st3">R</text>
<text transform="matrix(1 0 0 1 106.335 335.5375)" class="st1 st2 st3">edskabe</text>
<text transform="matrix(1 0 0 1 171.075 335.5375)" class="st1 st2 st3">r</text>
<text transform="matrix(1 0 0 1 178.495 335.5375)" class="st1 st2 st3">ne har dannet et fundament for mine fremtidi</text>
<text transform="matrix(1 0 0 1 549.655 335.5375)" class="st1 st2 st3">g</text>
<text transform="matrix(1 0 0 1 559.375 335.5375)" class="st1 st2 st3">e </text>
<text transform="matrix(1 0 0 1 296.675 360.7375)" class="st1 st2 st3">op</text>
<text transform="matrix(1 0 0 1 318.105 360.7375)" class="st1 st2 st3">g</text>
<text transform="matrix(1 0 0 1 327.935 360.7375)" class="st1 st2 st3">a</text>
<text transform="matrix(1 0 0 1 336.185 360.7375)" class="st1 st2 st3">v</text>
<text transform="matrix(1 0 0 1 345.635 360.7375)" class="st1 st2 st3">e</text>
<text transform="matrix(1 0 0 1 354.375 360.7375)" class="st1 st2 st3">r</text>
<text transform="matrix(1 0 0 1 360.575 360.7375)" class="st1 st2 st3">.</text>
<text transform="matrix(1 0 0 1 95.035 385.9375)" class="st1 st2 st3">Udviklingsprocessen kan ses i nedstående dokumentation, </text>
<text transform="matrix(1 0 0 1 146.435 411.1375)" class="st1 st2 st3">samt link til færdigt produkt nederst på siden.</text>
</svg>
