<svg id="Layer_1" data-name="Layer 1" xmlns="http://www.w3.org/2000/svg" viewBox="0 0 650.06 650.06"><defs><style>.cls-1{fill:#fff;stroke:#1d1d1b;stroke-miterlimit:10;}.cls-1,.cls-22{opacity:0.5;}.cls-2{font-size:21px;font-family:Garamond-Bold, Garamond;font-weight:700;}.cls-17,.cls-18,.cls-19,.cls-2,.cls-20,.cls-21,.cls-22,.cls-23{fill:#1d1d1b;}.cls-3{letter-spacing:-0.04em;}.cls-4{letter-spacing:-0.02em;}.cls-5{letter-spacing:0.01em;}.cls-6{font-family:Garamond;font-weight:400;}.cls-7{letter-spacing:0.03em;}.cls-8{letter-spacing:0.04em;}.cls-9{letter-spacing:0.02em;}.cls-10{letter-spacing:0.02em;}.cls-11{letter-spacing:0.02em;}.cls-12{letter-spacing:0.13em;}.cls-13{letter-spacing:0.02em;}.cls-14{letter-spacing:-0.01em;}.cls-15{letter-spacing:-0.01em;}.cls-16{letter-spacing:0.02em;}.cls-18{opacity:0.9;}.cls-19{opacity:0.8;}.cls-20{opacity:0.7;}.cls-21{opacity:0.6;}.cls-23{opacity:0.4;}</style></defs><circle class="cls-1" cx="325.03" cy="325.03" r="324.53"/><text class="cls-2" transform="translate(211.18 125.94)"><tspan class="cls-3">J</tspan><tspan x="7.1" y="0">eg er her ble</tspan><tspan class="cls-4" x="116.69" y="0">v</tspan><tspan x="125.96" y="0">et int</tspan><tspan class="cls-5" x="171.68" y="0">r</tspan><tspan x="179.11" y="0">oduce</tspan><tspan class="cls-5" x="232.93" y="0">r</tspan><tspan x="240.35" y="0">et til</tspan><tspan class="cls-6"><tspan x="-108.43" y="25.2" xml:space="preserve">          </tspan><tspan x="-108.43" y="50.4">G</tspan><tspan class="cls-7" x="-92.24" y="50.4">r</tspan><tspan x="-84.56" y="50.4">undlæ</tspan><tspan class="cls-8" x="-35.99" y="50.4">g</tspan><tspan class="cls-9" x="-25.77" y="50.4">g</tspan><tspan x="-16.05" y="50.4">ende fagli</tspan><tspan class="cls-10" x="62.23" y="50.4">g</tspan><tspan x="71.96" y="50.4">e be</tspan><tspan class="cls-11" x="105.41" y="50.4">g</tspan><tspan x="115.34" y="50.4">reber inden for design a</tspan><tspan class="cls-12" x="308.9" y="50.4">f</tspan><tspan x="318.42" y="50.4" xml:space="preserve"> digitale </tspan><tspan x="-108.43" y="75.6">b</tspan><tspan class="cls-7" x="-97.71" y="75.6">r</tspan><tspan x="-90.03" y="75.6">u</tspan><tspan class="cls-9" x="-79.75" y="75.6">g</tspan><tspan x="-70.03" y="75.6">er</tspan><tspan class="cls-11" x="-54.28" y="75.6">g</tspan><tspan x="-44.35" y="75.6">rænse</tspan><tspan class="cls-13" x="2.03" y="75.6">f</tspan><tspan x="9.21" y="75.6">lader</tspan><tspan x="-108.43" y="100.8" xml:space="preserve">              </tspan><tspan x="-108.43" y="126">Digital indholdsproduktion</tspan><tspan x="-108.43" y="176.4">Digital </tspan><tspan class="cls-14" x="-48.51" y="176.4">k</tspan><tspan x="-38.94" y="176.4">om</tspan><tspan class="cls-15" x="-12.03" y="176.4">m</tspan><tspan x="3.88" y="176.4">unikation og respons</tspan><tspan class="cls-15" x="174.26" y="176.4">i</tspan><tspan x="178.79" y="176.4">vt </tspan><tspan class="cls-14" x="200" y="176.4">w</tspan><tspan x="213.72" y="176.4">ebdesign</tspan><tspan x="-108.43" y="226.8">Opsættelse a</tspan><tspan class="cls-12" x="-5.41" y="226.8">f</tspan><tspan x="4.12" y="226.8"> </tspan><tspan class="cls-14" x="9.37" y="226.8">w</tspan><tspan x="23.09" y="226.8">ebsider i html og css</tspan><tspan x="-108.43" y="252" xml:space="preserve">            </tspan><tspan x="-108.43" y="277.2">Læ</tspan><tspan class="cls-16" x="-84.15" y="277.2">r</tspan><tspan x="-76.72" y="277.2">t de første hands-on færdigheder inden for udarbejdelse </tspan><tspan x="-108.43" y="302.4">a</tspan><tspan class="cls-12" x="-99.9" y="302.4">f</tspan><tspan x="-90.37" y="302.4"> </tspan><tspan class="cls-11" x="-85.12" y="302.4">g</tspan><tspan x="-75.2" y="302.4">rafik</tspan><tspan x="-108.43" y="327.6" xml:space="preserve">             </tspan><tspan x="-108.43" y="352.8">Billedbehandling i Photoshop</tspan><tspan x="-108.43" y="403.2">Opsætning a</tspan><tspan class="cls-12" x="-5.85" y="403.2">f</tspan><tspan x="3.68" y="403.2" xml:space="preserve"> tekst og billeder i Adobe XD</tspan></tspan></text><circle class="cls-17" cx="81.87" cy="181.56" r="6.88"/><circle class="cls-18" cx="81.87" cy="246.15" r="6.88"/><circle class="cls-19" cx="81.87" cy="295.6" r="6.88"/><circle class="cls-20" cx="81.87" cy="345.05" r="6.88"/><circle class="cls-21" cx="81.87" cy="410.68" r="6.88"/><circle class="cls-22" cx="81.87" cy="473.44" r="6.88"/><circle class="cls-23" cx="81.87" cy="523.89" r="6.88"/></svg>