<svg id="Layer_1" data-name="Layer 1" xmlns="http://www.w3.org/2000/svg" viewBox="0 0 650.06 650.06"><defs><style>.cls-1{fill:#fff;stroke:#1d1d1b;stroke-miterlimit:10;opacity:0.5;}.cls-2{font-size:21px;fill:#1d1d1b;font-family:Garamond-Bold, Garamond;font-weight:700;}.cls-3{letter-spacing:0.03em;}.cls-4{letter-spacing:-0.02em;}.cls-5{font-family:Garamond;font-weight:400;}.cls-6{letter-spacing:0.02em;}.cls-7{letter-spacing:0.03em;}.cls-8{letter-spacing:0.04em;}.cls-9{letter-spacing:0.02em;}.cls-10{letter-spacing:-0.02em;}.cls-11{letter-spacing:-0.02em;}.cls-12{letter-spacing:-0.01em;}.cls-13{letter-spacing:-0.01em;}.cls-14{letter-spacing:0.02em;}.cls-15{letter-spacing:0.02em;}.cls-16{letter-spacing:0.03em;}.cls-17{letter-spacing:0.02em;}.cls-18{letter-spacing:0.13em;}.cls-19{letter-spacing:-0.04em;}.cls-20{letter-spacing:-0.02em;}.cls-21{letter-spacing:-0.04em;}.cls-22{letter-spacing:-0.04em;}.cls-23{letter-spacing:0.01em;}.cls-24{letter-spacing:0.03em;}.cls-25{letter-spacing:0.02em;}.cls-26{letter-spacing:-0.02em;}.cls-27{letter-spacing:0em;}.cls-28{letter-spacing:-0.09em;}.cls-29{letter-spacing:0.02em;}</style></defs><circle class="cls-1" cx="325.03" cy="325.03" r="324.53"/><text class="cls-2"><tspan x="218.11" y="126.63">G</tspan><tspan class="cls-3" x="233.42" y="126.63">r</tspan><tspan x="241.34" y="126.63">undlæ</tspan><tspan class="cls-4" x="296.25" y="126.63">g</tspan><tspan x="307.26" y="126.63">gende HTML</tspan><tspan class="cls-5"><tspan x="66.34" y="151.83">I </tspan><tspan class="cls-6" x="79.02" y="151.83">g</tspan><tspan class="cls-7" x="88.95" y="151.83">r</tspan><tspan x="96.63" y="151.83">undlæ</tspan><tspan class="cls-8" x="145.19" y="151.83">g</tspan><tspan class="cls-9" x="155.41" y="151.83">g</tspan><tspan x="165.13" y="151.83">ende HTML </tspan><tspan class="cls-10" x="272.75" y="151.83">v</tspan><tspan x="282.19" y="151.83">ar </tspan><tspan class="cls-11" x="302.97" y="151.83">v</tspan><tspan x="312.42" y="151.83">ores mål at l</tspan><tspan class="cls-12" x="411.29" y="151.83">a</tspan><tspan class="cls-10" x="419.54" y="151.83">v</tspan><tspan x="428.98" y="151.83">e et respons</tspan><tspan class="cls-13" x="526.31" y="151.83">i</tspan><tspan x="530.84" y="151.83">vt sit</tspan><tspan class="cls-12" x="570.65" y="151.83">e</tspan><tspan x="579.12" y="151.83">, </tspan><tspan x="83.36" y="177.03">som </tspan><tspan class="cls-14" x="123.18" y="177.03">g</tspan><tspan class="cls-12" x="133" y="177.03">a</tspan><tspan x="141.25" y="177.03">v en </tspan><tspan class="cls-15" x="181.06" y="177.03">g</tspan><tspan class="cls-16" x="190.98" y="177.03">r</tspan><tspan x="198.66" y="177.03">undlæ</tspan><tspan class="cls-8" x="247.23" y="177.03">g</tspan><tspan class="cls-17" x="257.45" y="177.03">g</tspan><tspan x="267.17" y="177.03">ende forståelsea a</tspan><tspan class="cls-18" x="410.21" y="177.03">f</tspan><tspan x="419.73" y="177.03" xml:space="preserve"> de mest a</tspan><tspan class="cls-12" x="501.98" y="177.03">n</tspan><tspan class="cls-10" x="512.42" y="177.03">v</tspan><tspan x="521.86" y="177.03">endte </tspan><tspan x="73.86" y="202.23">redskaber for en </tspan><tspan class="cls-13" x="212.32" y="202.23">m</tspan><tspan x="228.23" y="202.23">ultimediedesigne</tspan><tspan class="cls-19" x="363.83" y="202.23">r</tspan><tspan x="370.03" y="202.23">. </tspan><tspan class="cls-20" x="379.88" y="202.23">R</tspan><tspan x="392.48" y="202.23">edskabe</tspan><tspan class="cls-14" x="457.22" y="202.23">r</tspan><tspan x="464.64" y="202.23">ne har dannet </tspan><tspan x="151.74" y="227.43">et fundament for mine fremtidi</tspan><tspan class="cls-9" x="406.1" y="227.43">g</tspan><tspan x="415.82" y="227.43">e op</tspan><tspan class="cls-14" x="451.25" y="227.43">g</tspan><tspan class="cls-13" x="461.07" y="227.43">a</tspan><tspan class="cls-11" x="469.32" y="227.43">v</tspan><tspan x="478.77" y="227.43">e</tspan><tspan class="cls-21" x="487.51" y="227.43">r</tspan><tspan x="493.72" y="227.43">. </tspan></tspan><tspan class="cls-22" x="182.33" y="277.83">J</tspan><tspan x="189.42" y="277.83">eg er her ble</tspan><tspan class="cls-4" x="299.02" y="277.83">v</tspan><tspan x="308.29" y="277.83">et int</tspan><tspan class="cls-23" x="354.01" y="277.83">r</tspan><tspan x="361.43" y="277.83">oduce</tspan><tspan class="cls-23" x="415.26" y="277.83">r</tspan><tspan x="422.68" y="277.83">et til:</tspan><tspan class="cls-5"><tspan x="65.71" y="328.23">- Design a</tspan><tspan class="cls-18" x="148.83" y="328.23">f</tspan><tspan x="158.36" y="328.23" xml:space="preserve"> digitale b</tspan><tspan class="cls-24" x="237.3" y="328.23">r</tspan><tspan x="244.98" y="328.23">u</tspan><tspan class="cls-17" x="255.26" y="328.23">g</tspan><tspan x="264.98" y="328.23">er</tspan><tspan class="cls-6" x="280.73" y="328.23">g</tspan><tspan x="290.66" y="328.23">rænse</tspan><tspan class="cls-25" x="337.04" y="328.23">f</tspan><tspan x="344.21" y="328.23">lader</tspan><tspan x="65.71" y="353.43">- Digital indholdsproduktion</tspan><tspan x="65.71" y="378.63">- Digital </tspan><tspan class="cls-13" x="137.45" y="378.63">k</tspan><tspan x="147.01" y="378.63">om</tspan><tspan class="cls-12" x="173.92" y="378.63">m</tspan><tspan x="189.84" y="378.63">unikation </tspan><tspan x="65.71" y="403.83">- </tspan><tspan class="cls-26" x="77.53" y="403.83">R</tspan><tspan class="cls-27" x="90.13" y="403.83">espons</tspan><tspan class="cls-12" x="146.34" y="403.83">i</tspan><tspan x="150.87" y="403.83">vt </tspan><tspan class="cls-12" x="172.09" y="403.83">w</tspan><tspan x="185.81" y="403.83">ebdesign</tspan><tspan x="65.71" y="429.03">- Opsættelse </tspan><tspan class="cls-13" x="172.02" y="429.03">w</tspan><tspan x="185.73" y="429.03">ebsider i html og css </tspan><tspan x="65.71" y="454.23">- Udarbejdelse a</tspan><tspan class="cls-18" x="196.95" y="454.23">f</tspan><tspan x="206.48" y="454.23"> </tspan><tspan class="cls-6" x="211.73" y="454.23">g</tspan><tspan x="221.65" y="454.23">rafik og billedbehandling i Photoshop</tspan><tspan x="65.71" y="479.43">- Opsætning a</tspan><tspan class="cls-18" x="180.11" y="479.43">f</tspan><tspan x="189.63" y="479.43" xml:space="preserve"> tekst og billeder i Adobe X</tspan><tspan class="cls-28" x="414.24" y="479.43">D</tspan><tspan x="428.45" y="479.43">. </tspan></tspan><tspan x="81.23" y="529.83">Udviklingsp</tspan><tspan class="cls-23" x="190.17" y="529.83">r</tspan><tspan x="197.59" y="529.83">ocessen kan ses i nedstående dokumenta</tspan><tspan x="561.82" y="529.83">-</tspan><tspan x="229.11" y="555.03">tion, samt link ø</tspan><tspan class="cls-4" x="373.48" y="555.03">v</tspan><tspan x="382.75" y="555.03">e</tspan><tspan class="cls-29" x="392.6" y="555.03">r</tspan><tspan x="400.17" y="555.03">st.</tspan><tspan class="cls-5" x="420.95" y="555.03"> </tspan></text></svg>