<svg id="Layer_1" data-name="Layer 1" xmlns="http://www.w3.org/2000/svg" viewBox="0 0 650.06 650.06"><defs><style>.cls-1{fill:#fff;stroke:#1d1d1b;stroke-miterlimit:10;opacity:0.5;}.cls-2{font-size:21px;fill:#1d1d1b;font-family:Garamond-Bold, Garamond;font-weight:700;}.cls-3{font-family:Garamond;font-weight:400;}.cls-4{letter-spacing:-0.03em;}.cls-5{letter-spacing:-0.02em;}.cls-6{letter-spacing:-0.01em;}.cls-7{letter-spacing:-0.02em;}.cls-8{letter-spacing:0.03em;}.cls-9{letter-spacing:0.02em;}.cls-10{letter-spacing:-0.01em;}.cls-11{letter-spacing:0.02em;}.cls-12{letter-spacing:0.13em;}.cls-13{letter-spacing:0.02em;}.cls-14{letter-spacing:-0.04em;}.cls-15{letter-spacing:0.01em;}.cls-16{letter-spacing:-0.02em;}.cls-17{letter-spacing:0.02em;}</style></defs><circle class="cls-1" cx="325.03" cy="325.03" r="324.53"/><text class="cls-2"><tspan x="279.11" y="264.11">Animation</tspan><tspan class="cls-3"><tspan class="cls-4" x="58.59" y="289.31">J</tspan><tspan x="64.94" y="289.31">eg er i dette tema ble</tspan><tspan class="cls-5" x="234" y="289.31">v</tspan><tspan x="243.44" y="289.31">et introduceret til j</tspan><tspan class="cls-6" x="394.12" y="289.31">a</tspan><tspan class="cls-7" x="402.37" y="289.31">v</tspan><tspan x="411.81" y="289.31">ascript og det at b</tspan><tspan class="cls-8" x="557.25" y="289.31">r</tspan><tspan x="564.93" y="289.31">u</tspan><tspan class="cls-9" x="575.22" y="289.31">g</tspan><tspan x="584.94" y="289.31">e </tspan><tspan x="63.36" y="314.51">j</tspan><tspan class="cls-10" x="68.17" y="314.51">a</tspan><tspan class="cls-5" x="76.42" y="314.51">v</tspan><tspan x="85.87" y="314.51">ascript sammen med css animation til at skabe et lille spil. Her </tspan><tspan x="59.48" y="339.71">udviklede jeg et spildesign efter mode</tspan><tspan class="cls-11" x="365.01" y="339.71">r</tspan><tspan x="372.43" y="339.71">ne </tspan><tspan class="cls-6" x="397.14" y="339.71">k</tspan><tspan x="406.71" y="339.71">o</tspan><tspan class="cls-6" x="417.42" y="339.71">n</tspan><tspan class="cls-7" x="427.86" y="339.71">v</tspan><tspan x="437.3" y="339.71">entioner og renteg</tspan><tspan x="586.23" y="339.71">-</tspan><tspan x="139.25" y="364.91">ning a</tspan><tspan class="cls-12" x="188.68" y="364.91">f</tspan><tspan x="198.2" y="364.91"> </tspan><tspan class="cls-13" x="203.45" y="364.91">g</tspan><tspan x="213.38" y="364.91">rafik</tspan><tspan class="cls-10" x="250.34" y="364.91">k</tspan><tspan x="259.91" y="364.91">en til spillet i Adobe Illustrato</tspan><tspan class="cls-14" x="502.22" y="364.91">r</tspan><tspan x="508.43" y="364.91">. </tspan></tspan><tspan x="65.61" y="415.31">Udviklingsp</tspan><tspan class="cls-15" x="174.55" y="415.31">r</tspan><tspan x="181.97" y="415.31">ocessen kan ses i nedstående dokumentation, </tspan><tspan x="253.08" y="440.51">samt link ø</tspan><tspan class="cls-16" x="351.74" y="440.51">v</tspan><tspan x="361.01" y="440.51">e</tspan><tspan class="cls-17" x="370.85" y="440.51">r</tspan><tspan x="378.43" y="440.51">st.</tspan></text></svg>