<svg id="Layer_1" data-name="Layer 1" xmlns="http://www.w3.org/2000/svg" viewBox="0 0 627.71 78.65"><defs><style>.cls-1{fill:#1d1d1b;}</style></defs><path class="cls-1" d="M35.46,49.68V49c4.74-.84,4.86-1.38,4.92-7.26L40.56,15c-5.16,10.92-14.94,32-16,34.68H24c-.66-1.86-7.26-17.7-14.22-34C9,38.52,9.06,41.52,9.06,44c0,3.36.84,4.38,5.4,5v.72h-13V49c4.14-.54,4.92-1.62,5.22-4.92.24-2.52.42-5.94,1.56-28,.12-2.52-.12-4-5.52-4.62v-.72H12L25.92,42.12,41.1,10.68h9.18v.72c-5.22.78-5.64,1.38-5.64,6.9l.12,23.4c.06,6.06.6,6.48,5.52,7.26v.72Z"/><path class="cls-1" d="M75.6,49.68V49c3.3-.6,4.2-1.08,3.48-3.24-.78-2.58-2.28-7-4.08-11.94H62.94c-1.32,3.84-2.46,6.9-3.36,9.78-1.32,4.08-.42,4.5,4.14,5.4v.72H51.18V49c3.36-.6,4.38-1,6.6-6.66L70.26,10l.84-.12c3.72,10.92,7.62,21.9,11.64,33.06,1.86,5.22,2.58,5.22,6.36,6.06v.72ZM69.12,16.74C67.2,21.84,65.4,27.06,63.54,32H74.46Z"/><path class="cls-1" d="M125.46,50c-.48,0-1.92,0-2.34-.06-5-.3-6.24-.9-8.64-4.14-2-2.76-4.86-7.56-7-11.16-1.56-2.64-2.22-3-5.28-3H99.72V43c0,4.62.48,5.28,5.28,5.94v.72H90.24V49c4.68-.72,5.22-1.2,5.22-5.94V17.22c0-4.62-.42-5.1-5.22-5.82v-.72h14.34c4.08,0,7.32.66,9.48,2.22a8.76,8.76,0,0,1,3.66,7.38c0,4.92-3.3,8.34-7.68,10.26,1.14,2,3.9,6.6,5.7,9.3a57.22,57.22,0,0,0,5,6.9,7.16,7.16,0,0,0,4.92,2.52ZM103.38,30.42c3,0,4.68-.12,6.36-1.32,2.4-1.68,3.18-4.14,3.18-7.74,0-6.54-3.6-9.48-8.7-9.48-2.22,0-3.3.24-3.78.54s-.72.9-.72,2.82V30.42Z"/><path class="cls-1" d="M125.7,49.68V49c4.74-.84,5.22-1.38,5.22-6V17.46c0-5-.42-5.28-5.22-6.06v-.72h14.76v.72c-4.86.66-5.28,1.08-5.28,6.06V43c0,4.56.42,5.1,5.28,6v.72Z"/><path class="cls-1" d="M173.4,41.16c-.3,2-1.38,6.72-1.86,8.52H144.3V49c5.28-.72,5.64-1.14,5.64-6.06V17.82c0-5.16-.18-5.52-4.86-6.42v-.72h17c5.16,0,7,0,8.1-.12,0,2.1.24,6.42.42,8.16l-.84.12a23.66,23.66,0,0,0-1.86-4.74c-1.14-1.68-1.86-1.8-5.4-1.8h-6.54c-1.62,0-1.74.18-1.74,1.86V28.08h7.44c4.08,0,4.62-.78,5.34-4.8h.78V34.56H167c-1-4.2-1.44-4.8-5.22-4.8H154.2V44c0,4,1.62,4.14,5,4.14h5.94c2.88,0,3.72-.54,5.22-2.82A24.58,24.58,0,0,0,172.62,41Z"/><path class="cls-1" d="M217.38,33.24c-3.42.6-3.84.84-3.84,4.92v4.62a34,34,0,0,0,.36,5.82c-3.06.54-9.66,2-14.52,2-14.1,0-22.2-8.58-22.2-20.46,0-13.5,11-20.28,23.76-20.28,4.86,0,10.14,1.2,12.12,1.38.12,2.64.6,7.2,1,10.5l-2.34.42c-1.44-5.1-3.66-7.68-7.38-8.94a18.06,18.06,0,0,0-5.1-.72c-7.26,0-12.72,6.3-12.72,16.62,0,10.56,3.72,18.9,13.56,18.9a7.81,7.81,0,0,0,3.84-.84c.9-.54,1.38-1.56,1.38-3.42V38.46c0-4.2-.84-4.62-5.88-5.22V31h17.94Z"/><path class="cls-1" d="M244.74,9.84c11.09,0,20.15,8.1,20.15,19.92,0,12.78-9.12,20.82-20.45,20.82-12,0-20.7-8.76-20.7-20.34C223.74,20,231.06,9.84,244.74,9.84Zm-.9,2.64c-6.12,0-10.62,6-10.62,16.62,0,10.14,4,18.84,12.12,18.84,5.69,0,10.13-5.52,10.13-16.5C255.47,19.56,250.79,12.48,243.84,12.48Z"/><path class="cls-1" d="M301.91,39.12c-.48,2.58-2.16,8.94-2.7,10.56H269.45V47.46c5.28-.36,5.76-.78,5.76-5.82V18.78c0-5-.6-5.52-5.1-5.88V10.68h18.72V12.9c-4.68.42-5.28.84-5.28,5.88V42.06c0,3.3.12,4.8,3.42,4.86.12.06,2.88.06,3.12.06,3.42,0,4.32-.72,5.76-2.34a25,25,0,0,0,3.78-6.24Z"/><path class="cls-1" d="M332.27,21.06a18.5,18.5,0,0,0-2.58-5.88c-1.08-1.26-1.56-1.74-5.1-1.74h-3.84v28.2c0,5,.6,5.4,5.94,5.82v2.22H306.77V47.46c5.1-.42,5.64-.78,5.64-5.82V13.44h-3.66c-3.36,0-4.32.54-5.46,2a22.85,22.85,0,0,0-2.46,5.7h-2.28c.42-4.38.84-9.06,1-11.94h1.8c.9,1.38,1.62,1.5,3.42,1.5h24a4,4,0,0,0,3.48-1.5H334c.06,2.52.3,7.8.6,11.7Z"/><path class="cls-1" d="M371.69,39.48c-.3,1.62-2,8.52-2.52,10.2H338V47.52c5.46-.54,5.82-.84,5.82-5.88V18.72c0-5.1-.72-5.46-4.8-5.82V10.68h19.5c6.3,0,8.4-.06,9.24-.12.06,1.08.36,6,.6,9.72l-2.34.3A15.08,15.08,0,0,0,363.47,15c-1.08-1.2-1.86-1.56-4.92-1.56h-3.9c-2.28,0-2.52.12-2.52,2.16V28.14H358c3.36,0,4-.9,4.86-5.16h2.34V36.36h-2.34c-1-4.44-1.44-5.16-4.92-5.16h-5.82V41.52c0,4.14.12,5.4,3.84,5.46h4.26c3.36,0,4.26-.42,5.58-2a26.79,26.79,0,0,0,3.66-6Z"/><path class="cls-1" d="M413,50c-.36,0-1.08,0-1.8-.06-7.62-.36-9.84-2-11.64-4.5-2.4-3.3-4.14-7-6.18-10.56-.9-1.62-1.74-2-3.66-2l-1.2-.06v8.76c0,4.86.6,5.28,5.1,5.82v2.22H375.23V47.46c4.56-.48,5.1-1,5.1-5.82v-23c0-4.74-.6-5.4-5.1-5.76V10.68h17.4c5.34,0,8.4.6,10.86,2.28a9.16,9.16,0,0,1,4,8c0,5.34-3.54,8.16-7.5,9.72.9,1.8,3.24,5.7,5,8.46a48.49,48.49,0,0,0,4.56,6.24A7.31,7.31,0,0,0,413.39,48ZM390.11,30.42c2.58,0,4.56-.42,5.88-1.56,2-1.68,2.82-4,2.82-7,0-6.36-3.66-8.64-7-8.64-1.62,0-2.4.24-2.76.6s-.54,1.08-.54,2.28V30.42Z"/><path class="cls-1" d="M448.13,49.68V47.46c4.56-.48,4.86-.9,4.86-6.3l-.06-23.4c-4.32,10.32-9.06,21.72-13.38,31.92h-2c-3.9-9.78-8.16-20.94-12.48-31.44-.78,18.84-.78,22.56-.78,24.72.06,3.24,1.26,4.08,5.76,4.5v2.22H415.19V47.46c3.42-.3,5-1,5.46-4.56.24-1.8.48-5.22,1.86-25,.18-2.88-.24-4.5-5.4-5V10.68h13l11.58,26.46,11.64-26.46H466V12.9c-4.8.48-5.34,1-5.22,5.76l.48,22.5c.06,5.4.3,5.64,5.16,6.3v2.22Z"/><path class="cls-1" d="M491.21,49.68V47.46c3.78-.54,3.78-1.2,2.94-3.78-.6-1.8-1.56-4.5-2.46-6.9H480c-.66,1.86-1.5,4.14-2.1,6-1.26,3.78.18,4.26,4.92,4.68v2.22H468V47.46c3.78-.48,4.74-1,6.78-6.06l12.48-31,2.88-.54C494,20.28,498.05,31,502,41c2.22,5.58,2.76,6,6.66,6.48v2.22ZM485.93,21c-1.74,4.32-3.42,8.34-4.92,12.72h9.54Z"/><path class="cls-1" d="M552.59,12.9c-3.66.48-4.8,1.26-5,4-.18,2.34-.36,4.38-.36,9.6V50.34h-3.36l-25-30V33.9a91.12,91.12,0,0,0,.3,9.3c.24,2.64,1.5,4,5.94,4.26v2.22H510.23V47.46c3.42-.3,4.92-1.2,5.28-4a80.69,80.69,0,0,0,.36-9.54V19.68c0-2-.12-3.3-1.26-4.86s-2.52-1.68-5-1.92V10.68h11.7l22.86,26.58V26.46c0-5.22-.06-7.2-.24-9.42-.18-2.58-1.14-3.84-6.12-4.14V10.68h14.82Z"/><path class="cls-1" d="M598.13,12.9c-3.66.48-4.8,1.26-5,4-.18,2.34-.36,4.38-.36,9.6V50.34h-3.36l-25-30V33.9a91.12,91.12,0,0,0,.3,9.3c.24,2.64,1.5,4,5.94,4.26v2.22H555.77V47.46c3.42-.3,4.92-1.2,5.28-4a80.69,80.69,0,0,0,.36-9.54V19.68c0-2-.12-3.3-1.26-4.86s-2.52-1.68-5-1.92V10.68h11.7l22.86,26.58V26.46c0-5.22-.06-7.2-.24-9.42-.18-2.58-1.14-3.84-6.12-4.14V10.68h14.82Z"/></svg>