<?xml version="1.0" encoding="utf-8"?>
<!-- Generator: Adobe Illustrator 26.0.0, SVG Export Plug-In . SVG Version: 6.00 Build 0)  -->
<svg version="1.1" id="Layer_1" xmlns="http://www.w3.org/2000/svg" xmlns:xlink="http://www.w3.org/1999/xlink" x="0px" y="0px"
	 viewBox="0 0 260 260" style="enable-background:new 0 0 260 260;" xml:space="preserve">
<style type="text/css">
	.st0{fill:#1D1D1B;}
	.st1{fill:#FFFFFF;}
</style>
<rect class="st0" width="260" height="260"/>
<path class="st1" d="M102,175.8v-1.7c11.1-2,11.4-3.2,11.6-17.1l0.4-62.7c-12.1,25.7-35.1,75.3-37.5,81.5h-1.4
	c-1.6-4.4-17.1-41.6-33.4-80c-1.8,53.7-1.7,60.8-1.7,66.5c0,7.9,2,10.3,12.7,11.7v1.7H22.1V174c9.7-1.3,11.6-3.8,12.3-11.6
	c0.6-5.9,1-14,3.7-65.8c0.3-5.9-0.3-9.4-13-10.9v-1.6h21.9L79.6,158l35.7-73.9h21.6v1.7c-12.3,1.8-13.3,3.2-13.3,16.2l0.3,55
	c0.1,14.2,1.4,15.2,13,17.1v1.7L102,175.8z"/>
<path class="st1" d="M237.9,135.7c-7.5,2-9,3-9,10.4v13.3c-0.1,4.6,0.3,9.2,1,13.7c-8.2,1.6-22,4.8-33,4.8
	c-32.7,0-50.3-19.3-50.3-46.9c0-32.6,24.8-48.8,53.6-48.8c13.8,0,23.7,2.4,27.6,2.7c0.3,6.2,0.6,13.5,1.6,21.8l-2.3,0.4
	c-1.9-8.2-6-16.2-15.4-19.3c-4.8-1.5-9.8-2.2-14.8-2.1c-18.6,0-30.5,14.5-30.5,41.7c0,25.1,7.5,47.1,30.9,47.1c3,0,7.9-0.6,10.6-2.3
	c2.1-1.3,3.5-3,3.5-10V148c0-9-1.3-10.4-12.6-12.3v-2.3h39.1L237.9,135.7z"/>
</svg>
