<svg id="Layer_1" data-name="Layer 1" xmlns="http://www.w3.org/2000/svg" viewBox="0 0 650.06 650.06"><defs><style>.cls-1{fill:#fff;stroke:#1d1d1b;stroke-miterlimit:10;opacity:0.5;}.cls-2{font-size:21px;fill:#1d1d1b;font-family:Garamond-Bold, Garamond;font-weight:700;}.cls-3{letter-spacing:0.03em;}.cls-4{letter-spacing:-0.02em;}.cls-5{font-family:Garamond;font-weight:400;}.cls-6{letter-spacing:0.02em;}.cls-7{letter-spacing:0.03em;}.cls-8{letter-spacing:0.04em;}.cls-9{letter-spacing:0.02em;}.cls-10{letter-spacing:0.03em;}.cls-11{letter-spacing:-0.02em;}.cls-12{letter-spacing:0.02em;}.cls-13{letter-spacing:-0.01em;}.cls-14{letter-spacing:-0.02em;}.cls-15{letter-spacing:-0.03em;}.cls-16{letter-spacing:0.02em;}.cls-17{letter-spacing:0.13em;}.cls-18{letter-spacing:0.02em;}.cls-19{letter-spacing:-0.04em;}.cls-20{letter-spacing:-0.01em;}.cls-21{letter-spacing:-0.11em;}.cls-22{letter-spacing:-0.04em;}.cls-23{letter-spacing:0.03em;}.cls-24{letter-spacing:0.02em;}.cls-25{letter-spacing:0.01em;}.cls-26{letter-spacing:0.02em;}</style></defs><circle class="cls-1" cx="325.03" cy="325.03" r="324.53"/><text class="cls-2"><tspan x="217.47" y="188.51">G</tspan><tspan class="cls-3" x="232.78" y="188.51">r</tspan><tspan x="240.69" y="188.51">undlæ</tspan><tspan class="cls-4" x="295.6" y="188.51">g</tspan><tspan x="306.61" y="188.51">gende indhold</tspan><tspan class="cls-5"><tspan x="58.8" y="213.71">I tema 5 fik jeg en </tspan><tspan class="cls-6" x="211.01" y="213.71">g</tspan><tspan class="cls-7" x="220.94" y="213.71">r</tspan><tspan x="228.62" y="213.71">undlæ</tspan><tspan class="cls-8" x="277.18" y="213.71">g</tspan><tspan class="cls-9" x="287.4" y="213.71">g</tspan><tspan x="297.12" y="213.71">ende forståelse for videoproduktion, </tspan><tspan x="58.76" y="238.91">he</tspan><tspan class="cls-10" x="78.22" y="238.91">r</tspan><tspan x="85.9" y="238.91">under forarbejdet inden sel</tspan><tspan class="cls-11" x="305.27" y="238.91">v</tspan><tspan x="314.71" y="238.91">e opta</tspan><tspan class="cls-12" x="364.79" y="238.91">g</tspan><tspan x="374.51" y="238.91">els</tspan><tspan class="cls-13" x="395.72" y="238.91">e</tspan><tspan x="404.19" y="238.91">, sel</tspan><tspan class="cls-14" x="435.25" y="238.91">v</tspan><tspan x="444.69" y="238.91">e opta</tspan><tspan class="cls-9" x="494.77" y="238.91">g</tspan><tspan x="504.49" y="238.91">elsen, samt </tspan><tspan x="57.35" y="264.11">postproduktion. </tspan><tspan class="cls-15" x="193.82" y="264.11">J</tspan><tspan x="200.18" y="264.11">eg benyttede sma</tspan><tspan class="cls-16" x="340.37" y="264.11">r</tspan><tspan x="347.79" y="264.11">tphone kamera til opta</tspan><tspan class="cls-12" x="531.94" y="264.11">g</tspan><tspan x="541.66" y="264.11">else a</tspan><tspan class="cls-17" x="585.4" y="264.11">f</tspan><tspan x="594.93" y="264.11"> </tspan><tspan x="68.27" y="289.31">video og ekste</tspan><tspan class="cls-18" x="184.62" y="289.31">r</tspan><tspan x="192.04" y="289.31">n l</tspan><tspan class="cls-13" x="212.82" y="289.31">y</tspan><tspan x="221.29" y="289.31">d og Premiere Pro og </tspan><tspan class="cls-11" x="400.86" y="289.31">A</tspan><tspan x="414.69" y="289.31">udition til redi</tspan><tspan class="cls-12" x="529.94" y="289.31">g</tspan><tspan x="539.65" y="289.31">erin</tspan><tspan class="cls-19" x="570.93" y="289.31">g</tspan><tspan x="579.41" y="289.31">. </tspan><tspan x="64.81" y="339.71">Hera</tspan><tspan class="cls-17" x="105.06" y="339.71">f</tspan><tspan x="114.58" y="339.71" xml:space="preserve"> kunne jeg l</tspan><tspan class="cls-20" x="208.4" y="339.71">a</tspan><tspan class="cls-11" x="216.66" y="339.71">v</tspan><tspan x="226.1" y="339.71">e mindre video/foto produktioner sel</tspan><tspan class="cls-21" x="531.64" y="339.71">v</tspan><tspan x="539.12" y="339.71">, samt </tspan><tspan x="58.56" y="364.91">forbedre at kunne </tspan><tspan class="cls-20" x="209.48" y="364.91">k</tspan><tspan x="219.04" y="364.91">om</tspan><tspan class="cls-13" x="245.95" y="364.91">m</tspan><tspan x="261.86" y="364.91">uni</tspan><tspan class="cls-13" x="287.67" y="364.91">k</tspan><tspan x="297.24" y="364.91">ere professionelt med kunde</tspan><tspan class="cls-22" x="528.2" y="364.91">r</tspan><tspan x="534.41" y="364.91">. De</tspan><tspan class="cls-23" x="569.19" y="364.91">r</tspan><tspan x="576.87" y="364.91">u</tspan><tspan x="587.16" y="364.91">-</tspan><tspan x="73.93" y="390.11">d</tspan><tspan class="cls-20" x="84.43" y="390.11">o</tspan><tspan class="cls-11" x="94.86" y="390.11">v</tspan><tspan x="104.31" y="390.11">er blev jeg introduceret til </tspan><tspan class="cls-24" x="318.63" y="390.11">g</tspan><tspan class="cls-23" x="328.55" y="390.11">r</tspan><tspan x="336.24" y="390.11">undlæ</tspan><tspan class="cls-8" x="384.8" y="390.11">g</tspan><tspan class="cls-12" x="395.02" y="390.11">g</tspan><tspan x="404.74" y="390.11">ende fagli</tspan><tspan class="cls-12" x="483.03" y="390.11">g</tspan><tspan x="492.75" y="390.11">e be</tspan><tspan class="cls-6" x="526.2" y="390.11">g</tspan><tspan x="536.13" y="390.11">reber </tspan><tspan x="67.74" y="415.31">inden for video og fotoproduktion, disse færdigheder benyttede </tspan><tspan x="103.84" y="440.51">jeg mig a</tspan><tspan class="cls-17" x="176.23" y="440.51">f</tspan><tspan x="185.76" y="440.51" xml:space="preserve"> til at redesigne en virksomheds hjemmesid</tspan><tspan class="cls-14" x="535.49" y="440.51">e</tspan><tspan x="543.84" y="440.51">. </tspan></tspan><tspan x="65.61" y="490.91">Udviklingsp</tspan><tspan class="cls-25" x="174.55" y="490.91">r</tspan><tspan x="181.97" y="490.91">ocessen kan ses i nedstående dokumentation, </tspan><tspan x="253.08" y="516.11">samt link ø</tspan><tspan class="cls-4" x="351.74" y="516.11">v</tspan><tspan x="361.01" y="516.11">e</tspan><tspan class="cls-26" x="370.85" y="516.11">r</tspan><tspan x="378.43" y="516.11">st.</tspan></text></svg>