<svg id="Layer_1" data-name="Layer 1" xmlns="http://www.w3.org/2000/svg" viewBox="0 0 650.06 650.06"><defs><style>.cls-1{fill:#fff;stroke:#1d1d1b;stroke-miterlimit:10;opacity:0.5;}.cls-2{font-size:21px;fill:#1d1d1b;font-family:Garamond-Bold, Garamond;font-weight:700;}.cls-3{letter-spacing:-0.02em;}.cls-4{letter-spacing:0.03em;}.cls-5{letter-spacing:0.01em;}.cls-6{font-family:Garamond;font-weight:400;}.cls-7{letter-spacing:0.02em;}.cls-8{letter-spacing:-0.01em;}.cls-9{letter-spacing:0.13em;}.cls-10{letter-spacing:0.02em;}.cls-11{letter-spacing:0.03em;}.cls-12{letter-spacing:0.02em;}.cls-13{letter-spacing:-0.04em;}.cls-14{letter-spacing:-0.05em;}.cls-15{letter-spacing:-0.03em;}.cls-16{letter-spacing:-0.02em;}.cls-17{letter-spacing:-0.11em;}.cls-18{letter-spacing:-0.02em;}.cls-19{letter-spacing:0.02em;}</style></defs><circle class="cls-1" cx="325.03" cy="325.03" r="324.53"/><text class="cls-2"><tspan class="cls-3" x="244.06" y="244.35">P</tspan><tspan x="256.57" y="244.35">o</tspan><tspan class="cls-4" x="267.51" y="244.35">r</tspan><tspan x="275.42" y="244.35">t</tspan><tspan class="cls-5" x="281.99" y="244.35">f</tspan><tspan x="288.54" y="244.35">olio eksamen </tspan><tspan class="cls-6"><tspan x="65.57" y="269.55">I det sidste tema, tema 6, har jeg udarbejdet et po</tspan><tspan class="cls-7" x="466.03" y="269.55">r</tspan><tspan x="473.46" y="269.55">tfolio-</tspan><tspan class="cls-8" x="523.97" y="269.55">w</tspan><tspan x="537.69" y="269.55">ebsite </tspan><tspan x="59.83" y="294.75">som er et studie-po</tspan><tspan class="cls-7" x="216.88" y="294.75">r</tspan><tspan x="224.3" y="294.75">tfolio der præsenterer de projekter jeg har ar</tspan><tspan x="583.66" y="294.75">-</tspan><tspan x="56.56" y="319.95">bejdet med i løbet a</tspan><tspan class="cls-9" x="217.08" y="319.95">f</tspan><tspan x="226.61" y="319.95" xml:space="preserve"> semestret. Mit po</tspan><tspan class="cls-7" x="373.81" y="319.95">r</tspan><tspan x="381.24" y="319.95">tfolio danner </tspan><tspan class="cls-10" x="491.89" y="319.95">g</tspan><tspan class="cls-11" x="501.82" y="319.95">r</tspan><tspan x="509.5" y="319.95">undlag for </tspan><tspan x="56.97" y="345.15">alt h</tspan><tspan class="cls-3" x="92.39" y="345.15">v</tspan><tspan x="101.84" y="345.15">ad jeg har læ</tspan><tspan class="cls-12" x="202.89" y="345.15">r</tspan><tspan x="210.31" y="345.15">t i 1. semeste</tspan><tspan class="cls-13" x="315.3" y="345.15">r</tspan><tspan x="321.51" y="345.15">. He</tspan><tspan class="cls-11" x="356.06" y="345.15">r</tspan><tspan x="363.74" y="345.15">under design</tspan><tspan class="cls-14" x="468.07" y="345.15">p</tspan><tspan x="477.74" y="345.15">, HTML, CS</tspan><tspan class="cls-13" x="579.23" y="345.15">S</tspan><tspan x="588.49" y="345.15">, </tspan><tspan class="cls-15" x="267.16" y="370.35">J</tspan><tspan class="cls-8" x="273.52" y="370.35">a</tspan><tspan class="cls-16" x="281.77" y="370.35">v</tspan><tspan x="291.22" y="370.35">aScript os</tspan><tspan class="cls-17" x="370.83" y="370.35">v</tspan><tspan x="378.3" y="370.35" xml:space="preserve">.  </tspan></tspan><tspan x="64.5" y="420.75">Udviklingsp</tspan><tspan class="cls-5" x="173.44" y="420.75">r</tspan><tspan x="180.86" y="420.75">ocessen kan ses i nedstående dokumentation, </tspan><tspan x="251.97" y="445.95">samt link ø</tspan><tspan class="cls-18" x="350.62" y="445.95">v</tspan><tspan x="359.89" y="445.95">e</tspan><tspan class="cls-19" x="369.74" y="445.95">r</tspan><tspan x="377.32" y="445.95">st.</tspan></text></svg>