<svg id="Layer_1" data-name="Layer 1" xmlns="http://www.w3.org/2000/svg" viewBox="0 0 650.06 650.06"><defs><style>.cls-1{fill:#fff;stroke:#1d1d1b;stroke-miterlimit:10;opacity:0.5;}.cls-2{font-size:21px;fill:#1d1d1b;font-family:Garamond-Bold, Garamond;font-weight:700;}.cls-3{letter-spacing:-0.02em;}.cls-4{letter-spacing:0.03em;}.cls-5{letter-spacing:0.01em;}.cls-6{font-family:Garamond;font-weight:400;}.cls-7{letter-spacing:0.02em;}.cls-8{letter-spacing:-0.01em;}.cls-9{letter-spacing:0.13em;}.cls-10{letter-spacing:0.02em;}.cls-11{letter-spacing:0.03em;}.cls-12{letter-spacing:0.02em;}.cls-13{letter-spacing:-0.04em;}.cls-14{letter-spacing:-0.02em;}.cls-15{letter-spacing:-0.03em;}.cls-16{letter-spacing:-0.01em;}.cls-17{letter-spacing:-0.11em;}</style></defs><circle class="cls-1" cx="325.03" cy="325.03" r="324.53"/><text class="cls-2"><tspan class="cls-3" x="249.93" y="244.35">P</tspan><tspan x="262.44" y="244.35">o</tspan><tspan class="cls-4" x="273.38" y="244.35">r</tspan><tspan x="281.3" y="244.35">t</tspan><tspan class="cls-5" x="287.86" y="244.35">f</tspan><tspan x="294.41" y="244.35">olio eksamen </tspan><tspan class="cls-6"><tspan x="71.44" y="269.55">I det sidste tema, tema 6, har jeg udarbejdet et po</tspan><tspan class="cls-7" x="471.91" y="269.55">r</tspan><tspan x="479.33" y="269.55">tfolio-</tspan><tspan class="cls-8" x="529.84" y="269.55">w</tspan><tspan x="543.56" y="269.55">ebsite </tspan><tspan x="53.57" y="294.75">som er et studie-po</tspan><tspan class="cls-7" x="210.62" y="294.75">r</tspan><tspan x="218.04" y="294.75">tfolio der præsenterer de projekter jeg har arbej</tspan><tspan x="601.66" y="294.75">-</tspan><tspan x="62.22" y="319.95">det med i løbet a</tspan><tspan class="cls-9" x="198.47" y="319.95">f</tspan><tspan x="207.99" y="319.95" xml:space="preserve"> semestret. Mit po</tspan><tspan class="cls-7" x="355.19" y="319.95">r</tspan><tspan x="362.62" y="319.95">tfolio danner </tspan><tspan class="cls-10" x="473.27" y="319.95">g</tspan><tspan class="cls-11" x="483.2" y="319.95">r</tspan><tspan x="490.88" y="319.95">undlag for alt </tspan><tspan x="59.56" y="345.15">h</tspan><tspan class="cls-3" x="70.27" y="345.15">v</tspan><tspan x="79.71" y="345.15">ad jeg har læ</tspan><tspan class="cls-12" x="180.76" y="345.15">r</tspan><tspan x="188.19" y="345.15">t i 1. semeste</tspan><tspan class="cls-13" x="293.18" y="345.15">r</tspan><tspan x="299.38" y="345.15">. He</tspan><tspan class="cls-11" x="333.94" y="345.15">r</tspan><tspan x="341.62" y="345.15">under designprincippe</tspan><tspan class="cls-14" x="522.92" y="345.15">r</tspan><tspan x="529.4" y="345.15">, HTML, </tspan><tspan x="251.79" y="370.35">CS</tspan><tspan class="cls-13" x="275.18" y="370.35">S</tspan><tspan x="284.44" y="370.35">, </tspan><tspan class="cls-15" x="294.29" y="370.35">J</tspan><tspan class="cls-16" x="300.65" y="370.35">a</tspan><tspan class="cls-3" x="308.9" y="370.35">v</tspan><tspan x="318.34" y="370.35">aScript os</tspan><tspan class="cls-17" x="397.95" y="370.35">v</tspan><tspan x="405.43" y="370.35" xml:space="preserve">.  </tspan></tspan><tspan x="70.37" y="420.75">Udviklingsp</tspan><tspan class="cls-5" x="179.31" y="420.75">r</tspan><tspan x="186.74" y="420.75">ocessen kan ses i nedstående dokumentation, </tspan><tspan x="205.14" y="445.95">samt link til færdige p</tspan><tspan class="cls-5" x="399.82" y="445.95">r</tspan><tspan x="407.24" y="445.95">ojekt.</tspan></text></svg>